<?xml version="1.0" encoding="UTF-8"?>
<svg version="1.1" xmlns="http://www.w3.org/2000/svg"
     width="200px" height="130px" 
     viewBox="0 0 3100 2000"
     preserveAspectRatio="xMidYMid meet">
<rect width="100%" height="100%" fill="#FFFFFF"/>
<g transform="translate(0.000000,2000.000000) scale(1.000000,-1.000000)"
fill="#1A1410" stroke="none">
<path d="M1887 1192 c-24 0 -71 -1 -104 -2 -34 -1 -102 -1 -151 -1 -49 0 -111
0 -136 -1 -51 -1 -164 -1 -187 0 -8 0 -29 1 -46 1 -17 1 -35 1 -40 2 -10 0
-19 -1 -23 -4 -4 -4 -5 -21 -1 -26 4 -4 7 -5 23 -5 22 -1 25 -2 30 -4 3 -1 7
-2 10 -3 7 -1 14 -3 19 -7 2 -1 7 -4 10 -5 5 -3 8 -7 13 -15 1 -3 4 -7 5 -9 4
-5 8 -16 9 -24 0 -5 1 -12 2 -16 3 -20 3 -53 4 -399 0 -351 0 -389 -3 -414 -1
-7 -3 -25 -5 -37 0 -2 -2 -7 -4 -11 -3 -4 -5 -9 -6 -12 -1 -3 -3 -6 -9 -12
-11 -11 -14 -14 -23 -16 -4 0 -9 -2 -10 -3 -8 -5 -10 -5 -22 -7 -34 -3 -36 -3
-40 -5 -3 -2 -5 -4 -7 -7 -7 -15 1 -23 21 -21 11 1 6 1 210 2 94 0 194 1 223
2 42 1 61 1 94 0 22 -1 45 -1 51 -2 12 0 52 -2 78 -3 61 -3 125 -4 155 -1 6 0
17 1 25 2 10 1 18 2 26 4 6 2 15 3 20 4 13 2 23 4 33 7 5 1 13 3 19 4 7 1 14
3 17 5 4 1 10 3 14 4 6 1 11 2 18 5 4 3 11 6 15 6 3 1 9 3 11 5 3 2 8 4 12 5
3 1 8 4 11 5 2 2 8 5 11 6 4 1 9 3 12 5 2 2 11 6 18 9 10 5 15 7 19 11 2 3 6
5 7 6 1 1 5 3 9 6 3 3 7 6 10 7 2 2 7 6 11 9 3 3 7 6 7 6 1 0 4 3 7 6 28 26
38 36 41 39 2 3 7 8 11 13 4 4 9 9 11 11 1 2 6 8 10 13 4 5 9 12 10 14 4 5 7
9 14 17 3 3 6 8 7 10 1 3 3 7 4 8 3 4 7 12 12 22 2 4 5 10 7 15 2 4 5 11 7 14
2 4 4 8 5 10 1 1 3 5 3 9 2 6 3 9 6 13 1 1 3 6 4 10 1 4 3 12 5 17 2 5 5 13 6
18 1 5 3 12 4 14 3 6 7 24 7 28 0 5 2 17 5 31 9 42 7 155 -4 198 -1 4 -2 11
-2 16 -1 6 -2 11 -5 17 -1 5 -4 13 -5 19 -1 5 -3 13 -5 17 -2 3 -4 10 -5 15
-1 5 -3 11 -5 14 -1 2 -3 7 -4 11 -1 3 -4 8 -5 11 -2 2 -5 8 -6 12 -1 3 -4 9
-6 12 -1 3 -4 7 -5 10 -1 3 -3 7 -5 9 -2 2 -4 6 -5 8 -1 3 -3 6 -4 8 -2 1 -5
5 -7 9 -2 4 -6 9 -10 13 -3 4 -7 8 -8 11 -1 2 -3 5 -5 7 -2 1 -5 5 -7 8 -4 4
-31 32 -48 49 -7 6 -22 19 -30 24 -7 4 -12 8 -21 14 -5 4 -12 8 -14 9 -2 1 -7
4 -9 6 -3 3 -7 5 -9 6 -3 1 -6 3 -8 4 -2 2 -5 3 -6 4 -2 0 -6 2 -9 4 -4 2 -9
5 -12 6 -3 1 -8 3 -11 5 -3 2 -9 4 -12 6 -4 1 -9 3 -11 4 -2 2 -7 4 -10 4 -4
1 -9 3 -11 4 -9 5 -44 15 -60 18 -6 1 -16 3 -21 5 -13 4 -34 7 -64 10 -4 0
-11 1 -14 2 -17 2 -101 4 -163 3z m-308 -41 c5 -1 10 -4 12 -5 2 -1 5 -2 7 -3
3 -1 6 -3 12 -9 7 -7 8 -8 9 -14 1 -4 2 -6 4 -9 4 -4 6 -7 7 -19 1 -5 3 -14 4
-18 3 -9 3 -11 4 -40 2 -58 2 -497 0 -505 -2 -13 3 -22 10 -18 4 3 11 14 13
21 3 7 9 18 17 31 2 3 6 9 9 14 3 5 7 11 9 14 2 2 5 6 6 9 1 2 3 4 4 6 1 1 3
3 4 5 1 2 4 6 7 9 2 3 4 6 4 6 0 1 2 3 4 6 3 2 6 6 6 8 1 2 6 8 10 14 13 18
16 22 19 29 2 3 4 7 6 9 8 11 22 38 26 52 2 5 4 10 5 12 4 8 4 8 4 157 0 149
0 159 4 166 1 2 3 7 4 11 2 10 6 17 9 20 2 1 5 5 7 8 3 5 5 7 9 9 3 2 7 4 9 6
5 4 8 5 19 6 5 1 10 2 13 3 6 4 15 5 47 6 28 1 76 1 87 -1 4 -1 11 -2 15 -4 5
-1 12 -2 17 -3 13 -2 22 -4 31 -7 4 -2 9 -4 12 -5 2 -1 6 -3 9 -4 3 -1 7 -3 9
-4 2 -1 7 -3 11 -5 3 -2 10 -5 15 -6 5 -1 9 -3 11 -5 2 -2 7 -4 10 -6 4 -1 11
-6 18 -10 6 -4 13 -9 16 -11 2 -1 7 -4 10 -7 2 -2 6 -5 8 -6 5 -3 47 -45 51
-51 2 -2 5 -7 8 -10 3 -2 6 -6 7 -8 0 -2 3 -6 6 -9 2 -3 5 -7 6 -9 0 -2 2 -5
4 -7 5 -6 17 -31 22 -43 1 -4 4 -10 6 -14 3 -5 6 -12 7 -16 2 -4 4 -10 6 -12
1 -3 3 -9 4 -13 1 -5 3 -9 4 -11 3 -3 5 -9 5 -14 0 -3 2 -10 6 -21 2 -7 4 -16
7 -32 1 -8 2 -12 3 -14 2 -2 3 -6 3 -11 1 -5 2 -16 2 -25 1 -10 3 -23 4 -30 3
-25 3 -33 4 -66 0 -35 -1 -49 -5 -81 -1 -8 -3 -21 -3 -29 -1 -12 -1 -16 -4
-24 -1 -5 -3 -13 -4 -17 -2 -13 -7 -35 -8 -37 -1 -1 -2 -6 -3 -11 -1 -4 -4
-11 -5 -15 -2 -4 -5 -10 -6 -13 -1 -4 -3 -9 -4 -11 -2 -2 -4 -7 -6 -11 -1 -5
-4 -11 -5 -14 -2 -3 -3 -8 -4 -10 -1 -2 -3 -7 -5 -9 -2 -3 -4 -8 -5 -11 -1 -3
-4 -7 -5 -10 -5 -7 -16 -21 -20 -26 -2 -2 -5 -7 -6 -9 -4 -10 -46 -53 -60 -62
-10 -6 -19 -13 -24 -17 -10 -8 -28 -19 -33 -20 -3 -1 -6 -3 -8 -5 -2 -1 -5 -3
-7 -4 -2 -1 -6 -2 -9 -4 -9 -3 -18 -6 -24 -7 -4 -1 -10 -3 -14 -5 -8 -3 -14
-4 -27 -5 -5 -1 -9 -2 -11 -3 -4 -2 -9 -3 -44 -6 -28 -2 -74 -1 -92 3 -5 1
-16 3 -24 5 -9 1 -17 3 -22 5 -4 2 -10 4 -13 5 -5 2 -21 12 -25 16 -4 5 -12
18 -15 25 -4 9 -11 32 -12 45 -2 15 -3 123 -3 251 0 67 0 123 0 124 -2 3 -4 6
-6 6 -2 0 -12 -11 -16 -18 -3 -5 -10 -14 -21 -28 -3 -4 -6 -8 -7 -10 -1 -3 -4
-7 -6 -10 -3 -3 -6 -7 -6 -9 -1 -2 -4 -6 -6 -9 -2 -3 -4 -6 -4 -6 0 -1 -5 -10
-16 -25 -2 -4 -4 -8 -5 -10 -1 -2 -2 -6 -4 -7 -3 -4 -6 -8 -6 -13 -1 -2 -3 -5
-5 -7 -2 -3 -4 -6 -5 -8 -1 -2 -4 -8 -7 -14 -3 -7 -5 -12 -5 -12 0 0 -2 -3 -3
-6 -2 -3 -5 -9 -5 -13 -1 -4 -3 -9 -4 -11 -2 -3 -4 -10 -5 -16 -2 -6 -5 -15
-7 -20 -2 -5 -4 -11 -4 -14 -1 -4 -2 -8 -3 -10 -1 -2 -2 -7 -3 -11 -1 -3 -2
-11 -2 -16 -1 -5 -2 -21 -3 -34 -1 -32 -2 -43 -5 -62 -2 -8 -3 -19 -4 -25 -1
-11 -3 -17 -6 -23 -2 -2 -4 -6 -5 -9 -6 -15 -26 -31 -48 -38 -14 -4 -41 6 -58
23 -9 9 -10 10 -11 14 0 3 -1 7 -3 9 -4 5 -6 11 -7 21 0 4 -1 12 -2 17 -1 6
-2 17 -3 31 -1 23 -2 775 0 783 0 2 1 9 3 14 1 6 2 11 2 13 0 7 3 19 6 24 2 2
5 7 6 9 6 14 17 25 28 28 4 0 7 2 8 2 3 2 12 3 24 3 7 0 10 0 17 -3z"/>
</g>
</svg>